<?xml version="1.0" encoding="UTF-8"?><svg id="_레이어_1" data-name="레이어_1" xmlns="http://www.w3.org/2000/svg" version="1.1" viewBox="0 0 100 100"><defs><style>
      .st0 {
        fill: #3333ab;
      }
      .st1 {
        fill: #fff;
      }
      .st2 {
        fill: #f16052;
      }
      .st3 {
        fill: #ff6e3d;
      }
    </style></defs><rect class="st1" x="10.15" y="10.05" width="80" height="80" rx="10.48" ry="10.48"/><g><g><path class="st0" d="M73.54,43.56l-22.36-17.44c-.07-.06-.16-.08-.24-.12-.03-.02-.06-.03-.09-.04-.14-.07-.29-.12-.44-.14-.09-.02-.18-.02-.27-.02-.09,0-.18,0-.27.02-.15.02-.3.07-.44.14-.03.02-.06.03-.09.04-.08.04-.17.06-.24.12l-22.36,17.44c-.71.55-.83,1.58-.28,2.28s1.59.83,2.3.27l1.24-.96v9.96c0,.93.76,1.69,1.7,1.69s1.7-.76,1.7-1.69v-12.61l16.73-13.05,16.73,13.05v12.61c0,.93.76,1.69,1.7,1.69s1.7-.76,1.7-1.69v-9.96l1.24.96c.71.55,1.74.43,2.3-.27s.44-1.73-.28-2.28Z"/><g><path class="st0" d="M49.67,83.12c.06-1.08.02-2.24-.18-3.3-.2-1.05-.46-2.08-.86-3.08-.72-1.79-1.83-3.42-3.18-4.8-1.57-1.6-3.5-2.81-5.35-4.06-1.24-.84-2.45-1.74-3.57-2.74s-1.93-2.14-3.1-2.99c-.85-.61-2.33-1.23-2.98-.03-.29.54-.25,1.21-.02,1.78.34.85,1.02,1.57,1.59,2.28.66.82,1.41,1.6,2.14,2.37s1.49,1.43,2.21,2.2c.39.41.78.83.98,1.36.06.15.1.34-.03.44-.08.06-.19.05-.29.03-2.05-.33-3.85-1.56-5.32-3.01-1.49-1.47-2.74-3.19-3.63-5.09-.67-1.44-.95-3.01-1.4-4.53-.37-1.25-.88-2.92-2.47-3-2.18-.11-1.9,2.67-1.71,4.05.25,1.81.76,3.57,1.32,5.3s1.13,3.31,1.94,4.87c1.73,3.34,4.42,6.13,7.55,8.22,3.06,2.04,6.56,3.37,10.17,4.05,1.53.29,3.1.48,4.66.62.45.04,1.21.08,1.44-.42.07-.15.08-.33.09-.52Z"/><path class="st3" d="M50.64,83.12c-.06-1.08-.02-2.24.18-3.3.2-1.05.46-2.08.86-3.08.72-1.79,1.83-3.42,3.18-4.8,1.57-1.6,3.5-2.81,5.35-4.06,1.24-.84,2.45-1.74,3.57-2.74,1.07-.96,1.93-2.14,3.1-2.99.85-.61,2.33-1.23,2.98-.03.29.54.25,1.21.02,1.78-.34.85-1.02,1.57-1.59,2.28-.66.82-1.41,1.6-2.14,2.37s-1.49,1.43-2.21,2.2c-.39.41-.78.83-.98,1.36-.06.15-.1.34.03.44.08.06.19.05.29.03,2.05-.33,3.85-1.56,5.32-3.01,1.49-1.47,2.74-3.19,3.63-5.09.67-1.44.95-3.01,1.4-4.53.37-1.25.88-2.92,2.47-3,2.18-.11,1.9,2.67,1.71,4.05-.25,1.81-.76,3.57-1.32,5.3-.54,1.67-1.13,3.31-1.94,4.87-1.73,3.34-4.42,6.13-7.55,8.22s-6.56,3.37-10.17,4.05c-1.53.29-3.1.48-4.66.62-.45.04-1.21.08-1.44-.42-.07-.15-.08-.33-.09-.52Z"/></g><rect class="st0" x="44.6" y="38.95" width="5.01" height="4.96" rx=".33" ry=".33"/><rect class="st0" x="50.68" y="38.95" width="5.01" height="4.96" rx=".33" ry=".33"/><rect class="st0" x="44.6" y="44.93" width="5.01" height="4.96" rx=".33" ry=".33"/><rect class="st0" x="50.68" y="44.93" width="5.01" height="4.96" rx=".33" ry=".33"/><path class="st2" d="M60.65,60.75c-.18-1.01-.66-1.95-1.42-2.65-1.47-1.34-3.68-1.57-5.55-1.08,0,0-2.9.89-3.52,3.9-.62-3.01-3.52-3.9-3.52-3.9-1.87-.49-4.08-.26-5.55,1.08-.77.7-1.24,1.64-1.42,2.65-.22,1.21-.04,2.47.45,3.59.64,1.45,1.91,2.43,3.11,3.41,1.28,1.04,2.55,2.07,3.7,3.25.21.22.42.44.63.67.94,1.04,1.8,2.16,2.58,3.33h0s.02.03.02.04c0,0,0,0,0,0,0,0,0,0,0,0,0-.01.02-.02.02-.03h0c.78-1.17,1.64-2.29,2.58-3.33.2-.23.41-.45.63-.67,1.15-1.18,2.42-2.21,3.7-3.25,1.2-.98,2.46-1.96,3.11-3.41.5-1.12.67-2.38.45-3.59Z"/></g><g><path class="st3" d="M75.91,24.31c0,4.96-5,5.27-5,5.27,0,0,5,.31,5,5.27,0-4.96,5-5.27,5-5.27,0,0-5-.31-5-5.27Z"/><path class="st3" d="M71.28,26.57h.06c.97-.22,1.6-.77,1.84-1.63l.02-.07-.05-.05c-6.3-5.68-14.45-8.81-22.95-8.81-18.84,0-34.17,15.2-34.17,33.88,0,6.7,1.98,13.18,5.73,18.75l.55.81-.34-.92c-.26-.7-.51-1.43-.76-2.18-.57-1.78-1.71-5.5-2.02-8.15-.39-3.29-.6-5.59-.6-8.32,0-17.29,14.18-31.35,31.62-31.35,7.77,0,15.24,2.83,21.05,7.98l.04.04Z"/><path class="st3" d="M79.48,32.6c-.56.26-1.28.95-1.4,2.68,2.33,4.37,3.66,9.34,3.66,14.62,0,2.73-.21,5.03-.6,8.32-.32,2.66-1.45,6.38-2.02,8.15-.24.75-.5,1.48-.76,2.18l-.34.92.55-.81c3.75-5.57,5.73-12.05,5.73-18.75,0-6.32-1.76-12.23-4.81-17.3Z"/></g></g></svg>